<?xml version="1.0" encoding="UTF-8" standalone="no"?>
<!-- Created with Inkscape (http://www.inkscape.org/) -->

<svg
   width="87.134163mm"
   height="36.976715mm"
   viewBox="0 0 87.134163 36.976715"
   version="1.1"
   id="svg230378"
   xml:space="preserve"
   inkscape:version="1.2.2 (732a01da63, 2022-12-09)"
   sodipodi:docname="Loghi-PiùZuppa.svg"
   xmlns:inkscape="http://www.inkscape.org/namespaces/inkscape"
   xmlns:sodipodi="http://sodipodi.sourceforge.net/DTD/sodipodi-0.dtd"
   xmlns="http://www.w3.org/2000/svg"
   xmlns:svg="http://www.w3.org/2000/svg"><sodipodi:namedview
     id="namedview230380"
     pagecolor="#ffffff"
     bordercolor="#000000"
     borderopacity="0.25"
     inkscape:showpageshadow="2"
     inkscape:pageopacity="0.0"
     inkscape:pagecheckerboard="0"
     inkscape:deskcolor="#d1d1d1"
     inkscape:document-units="mm"
     showgrid="false"
     inkscape:zoom="0.76167929"
     inkscape:cx="174.61417"
     inkscape:cy="531.71985"
     inkscape:window-width="1920"
     inkscape:window-height="1009"
     inkscape:window-x="-8"
     inkscape:window-y="-8"
     inkscape:window-maximized="1"
     inkscape:current-layer="layer1" /><defs
     id="defs230375" /><g
     inkscape:label="Layer 1"
     inkscape:groupmode="layer"
     id="layer1"
     transform="translate(-59.424756,-245.95931)"><g
       id="g287664"
       transform="translate(0.26308269,29.091152)"
       inkscape:export-filename="g287664.svg"
       inkscape:export-xdpi="96"
       inkscape:export-ydpi="96"><path
         id="path252110-9"
         style="fill:#941940;fill-opacity:1;stroke-width:0.461144;stroke-linecap:round"
         d="m 74.831031,224.9763 c -4.13693,2.7379 3.9028,6.28957 3.35716,1.44936 -2.29146,-2.79764 -1.20335,-0.27412 -3.35716,-1.44936 z m 6.61009,0.77044 c -0.36084,3.57711 -0.53366,4.12425 -0.76538,8.09788 0.0272,3.55912 -0.61835,5.49162 7.11641,5.52352 8.2731,0.0341 7.61111,-1.54815 7.33416,-13.195 -1.40085,-0.0116 -1.480657,0.0544 -2.999547,0.0338 -0.1082,3.9718 0.85116,10.41826 -2.45109,10.34999 -3.72418,-0.077 0.244914,0.10061 -3.978386,-0.0661 -3.23805,-0.12779 -1.25612,-7.27571 -1.30969,-10.51342 -0.99098,-0.13152 -1.796337,-0.10826 -2.946477,-0.23074 z m -5.88795,4.61668 c -2.69184,-1.28701 -1.80551,4.84981 -1.56341,7.74295 0.73081,3.28155 1.56451,5.03996 2.20479,1.94994 0.28326,-3.14638 2.46117,-11.16752 -0.64138,-9.69289 z"
         sodipodi:nodetypes="cccccsccssccccccc" /><path
         d="m 95.524401,216.86815 c -0.44379,4.97598 -6.92143,3.69176 -9.52709,6.71936 -0.70101,1.42365 2.00588,2.53348 1.15388,3.35822 -2.33795,2.26311 2.3332,0.29199 2.58884,-1.56952 0.57536,-3.75194 9.49293,-4.09637 5.78437,-8.50806 z"
         style="fill:#941940;fill-opacity:1;stroke-width:0.61247;stroke-linecap:round"
         id="path252126-8"
         sodipodi:nodetypes="ccscc" /><path
         id="path252112-7"
         style="fill:#941940;fill-opacity:1;stroke-width:0.843028;stroke-linecap:round"
         d="m 107.59045,222.19799 c -3.05528,0.27956 -9.953549,-3.07163 -9.941529,2.03166 4.552689,-2.84971 10.526569,5.13394 3.645709,6.1918 -6.562479,1.67555 -4.777839,11.35723 2.12892,9.2546 3.91367,-0.01 5.08711,-6.61136 0.008,-4.61886 -5.418919,-1.30066 3.55828,-4.24078 4.47294,-6.59706 1.90438,-1.72945 2.36994,-4.97015 -0.31377,-6.26214 z"
         sodipodi:nodetypes="ccccccc" /><path
         d="m 123.26849,230.09309 c -3.59458,1.32549 -1.81488,5.8254 -2.90062,8.62964 -0.89129,3.9346 -2.27909,7.77811 -4.32218,11.26605 -2.99282,0.56412 0.23551,5.95363 1.19083,2.05319 1.9591,-4.0931 2.34154,-8.7385 4.31835,-12.82478 2.33766,-0.78634 6.69044,0.38147 5.95667,-3.70884 -0.0807,-2.43839 -1.80149,-4.8732 -4.24305,-5.41526 z"
         style="fill:#941940;fill-opacity:1;stroke-width:0.461144;stroke-linecap:round"
         id="path252118-3"
         sodipodi:nodetypes="ccccccc" /><path
         d="m 67.627771,230.0655 c -3.59459,1.32549 -1.81488,5.8254 -2.90063,8.62964 -0.89128,3.9346 -2.27909,7.77811 -4.32218,11.26605 -2.99281,0.56412 0.23552,5.95363 1.19084,2.05319 1.9591,-4.0931 2.34154,-8.7385 4.31835,-12.82478 2.33765,-0.78634 6.69044,0.38147 5.95667,-3.70884 -0.0807,-2.43839 -1.8015,-4.8732 -4.24305,-5.41526 z"
         style="fill:#941940;fill-opacity:1;stroke-width:0.461144;stroke-linecap:round"
         id="path252118-3-1"
         sodipodi:nodetypes="ccccccc" /><path
         d="m 132.03879,230.4895 c -3.59458,1.32549 -1.81488,5.8254 -2.90062,8.62964 -0.89129,3.9346 -2.27909,7.77811 -4.32218,11.26605 -2.99282,0.56411 0.23551,5.95363 1.19083,2.05319 1.9591,-4.09311 2.34154,-8.7385 4.31835,-12.82478 2.33765,-0.78634 6.69044,0.38147 5.95667,-3.70884 -0.0807,-2.4384 -1.8015,-4.8732 -4.24305,-5.41526 z"
         style="fill:#941940;fill-opacity:1;stroke-width:0.461144;stroke-linecap:round"
         id="path252120-7"
         sodipodi:nodetypes="ccccccc" /><path
         d="m 145.30853,230.59245 c -3.10626,-0.89404 -7.815,-0.25885 -7.88558,3.83635 -0.50227,3.95608 3.56305,5.30793 6.58657,3.9741 3.41728,0.47632 1.47318,-3.16658 2.24197,-5.0453 0.1355,-0.99472 -0.002,-2.19116 -0.94296,-2.76515 z m -3.42574,1.06727 c 3.2263,0.19546 2.28433,5.23128 -0.42382,5.53741 -3.40131,0.26265 -3.90421,-5.17195 -0.55218,-5.63224 l 0.47612,-0.007 z"
         style="fill:#941940;fill-opacity:1;stroke-width:0.461144;stroke-linecap:round"
         id="path252122-6"
         sodipodi:nodetypes="cccccccccc" /><path
         d="m 118.21041,230.26694 c 0.24586,2.44132 0.36373,2.81474 0.52144,5.52667 -0.019,2.429 0.42138,3.74796 -4.85739,3.76885 -5.64617,0.0224 -5.1942,-1.05743 -5.00388,-9.00606 0.95604,-0.008 1.59525,-0.001 2.63185,-0.0152 0.0734,2.71065 -1.54799,6.26677 2.40253,6.17799 3.95052,-0.0888 1.44091,-3.93787 1.47784,-6.14752 0.67633,-0.0896 2.04266,-0.22123 2.82761,-0.30469 z"
         style="fill:#941940;fill-opacity:1;stroke-width:0.314719;stroke-linecap:round"
         id="path279444-3"
         sodipodi:nodetypes="ccscccccc" /></g></g></svg>
